<svg width="24" height="25" viewBox="0 0 24 25" fill="none" xmlns="http://www.w3.org/2000/svg">
<path fill-rule="evenodd" clip-rule="evenodd" d="M11.012 3.75907C6.513 4.25307 3 8.07307 3 12.7011C3 17.6641 7.038 21.7011 12 21.7011C16.962 21.7011 21 17.6641 21 12.7011C21 8.07307 17.487 4.25307 12.988 3.75907C12.2115 3.70778 11.8049 3.70805 11.012 3.75907ZM12 19.4511C8.278 19.4511 5.25 16.4231 5.25 12.7011C5.25 8.97908 8.278 5.95108 12 5.95108C15.722 5.95108 18.75 8.97908 18.75 12.7011C18.75 16.4231 15.722 19.4511 12 19.4511ZM14 12.7011H12V10.7011C12 10.1481 11.552 9.70108 11 9.70108C10.448 9.70108 10 10.1481 10 10.7011V13.7011C10 14.2541 10.448 14.7011 11 14.7011H14C14.552 14.7011 15 14.2541 15 13.7011C15 13.1481 14.552 12.7011 14 12.7011Z" fill="#5367FF"/>
</svg>
