<svg width="30" height="31" viewBox="0 0 30 31" fill="none" xmlns="http://www.w3.org/2000/svg">
<g clip-path="url(#clip0_2242_18676)">
<path d="M20.7725 0.720703C20.8424 0.720703 20.9122 0.720703 20.9859 0.720703C21.1572 2.83637 20.3497 4.41719 19.3682 5.56196C18.4053 6.69883 17.0866 7.80146 14.9538 7.63415C14.8115 5.54879 15.6204 4.08521 16.6005 2.94307C17.5095 1.87865 19.1759 0.931479 20.7725 0.720703Z" fill="white"/>
<path d="M27.2294 22.7417C27.2294 22.7627 27.2294 22.7812 27.2294 22.8009C26.63 24.6163 25.775 26.172 24.7317 27.6159C23.7793 28.9266 22.6121 30.6906 20.528 30.6906C18.7272 30.6906 17.5311 29.5326 15.6855 29.501C13.7331 29.4694 12.6595 30.4692 10.8745 30.7209C10.6703 30.7209 10.4661 30.7209 10.2659 30.7209C8.95512 30.5312 7.89729 29.4931 7.12664 28.5578C4.85421 25.794 3.09819 22.2239 2.77148 17.6554C2.77148 17.2075 2.77148 16.7609 2.77148 16.313C2.90981 13.0433 4.49853 10.3849 6.61024 9.09656C7.72472 8.41154 9.25679 7.82796 10.9628 8.08879C11.6939 8.20208 12.4408 8.45238 13.0956 8.70004C13.716 8.93848 14.4919 9.36135 15.227 9.33896C15.725 9.32447 16.2203 9.06495 16.7222 8.88184C18.1924 8.35094 19.6336 7.74233 21.5332 8.02819C23.8161 8.37334 25.4365 9.3877 26.4377 10.9527C24.5064 12.1818 22.9796 14.034 23.2405 17.1969C23.4723 20.0701 25.1427 21.751 27.2294 22.7417Z" fill="white"/>
</g>
<defs>
<clipPath id="clip0_2242_18676">
<rect width="30" height="30" fill="white" transform="translate(0 0.720703)"/>
</clipPath>
</defs>
</svg>
