<svg width="64" height="65" viewBox="0 0 64 65" fill="none" xmlns="http://www.w3.org/2000/svg">
<rect y="0.220703" width="64" height="64" rx="32" fill="#D8D8D8"/>
<path d="M43.7857 21.5066H20.2143C18.4391 21.5066 17 22.9457 17 24.7209V39.7209C17 41.4961 18.4391 42.9351 20.2143 42.9351H43.7857C45.5609 42.9351 47 41.4961 47 39.7209V24.7209C47 22.9457 45.5609 21.5066 43.7857 21.5066ZM44.8571 33.9201L38.1146 27.1777C37.6963 26.7594 37.018 26.7594 36.5997 27.1777L27.7143 36.063L24.1861 32.5347C23.7677 32.1164 23.0894 32.1164 22.6711 32.5347L19.1428 36.063V24.7209C19.1428 24.1291 19.6225 23.6494 20.2143 23.6494H43.7857C44.3775 23.6494 44.8572 24.1291 44.8572 24.7209V33.9201H44.8571Z" fill="#7B7B7B"/>
<path d="M26.643 32.2206C28.4182 32.2206 29.8573 30.7815 29.8573 29.0063C29.8573 27.2311 28.4182 25.792 26.643 25.792C24.8678 25.792 23.4287 27.2311 23.4287 29.0063C23.4287 30.7815 24.8678 32.2206 26.643 32.2206Z" fill="#7B7B7B"/>
</svg>
