<svg width="20" height="17" viewBox="0 0 20 17" fill="none" xmlns="http://www.w3.org/2000/svg">
<path fill-rule="evenodd" clip-rule="evenodd" d="M12.329 16.7214C12.262 16.7214 12.193 16.7184 12.124 16.7114C11.244 16.6244 10.554 16.0034 10.364 15.1284L7.681 2.73637L4.918 9.11837C4.759 9.48437 4.398 9.72137 4 9.72137H1C0.447 9.72137 0 9.27337 0 8.72137C0 8.16837 0.447 7.72137 1 7.72137H3.344L5.85 1.93237C6.205 1.11637 6.987 0.641372 7.876 0.730372C8.756 0.817372 9.446 1.43837 9.636 2.31337L12.319 14.7054L15.082 8.32337C15.241 7.95737 15.601 7.72137 16 7.72137H19C19.553 7.72137 20 8.16837 20 8.72137C20 9.27337 19.553 9.72137 19 9.72137H16.656L14.15 15.5094C13.823 16.2624 13.122 16.7214 12.329 16.7214Z" fill="#5367FF"/>
</svg>
