<svg width="24" height="25" viewBox="0 0 24 25" fill="none" xmlns="http://www.w3.org/2000/svg">
<path fill-rule="evenodd" clip-rule="evenodd" d="M11.1016 9.1207C11.1016 8.6239 11.5048 8.2207 12.0016 8.2207C12.4984 8.2207 12.9016 8.6239 12.9016 9.1207C12.9016 9.6175 12.4984 10.0207 12.0016 10.0207C11.5048 10.0207 11.1016 9.6175 11.1016 9.1207ZM11.1016 11.8209C11.1016 11.3241 11.5048 10.9209 12.0016 10.9209C12.4984 10.9209 12.9016 11.3241 12.9016 11.8209V16.3209C12.9016 16.8177 12.4984 17.2209 12.0016 17.2209C11.5048 17.2209 11.1016 16.8177 11.1016 16.3209V11.8209ZM12.0008 19.9205C8.03088 19.9205 4.80078 16.6904 4.80078 12.7205C4.80078 8.75061 8.03088 5.52051 12.0008 5.52051C15.9707 5.52051 19.2008 8.75061 19.2008 12.7205C19.2008 16.6904 15.9707 19.9205 12.0008 19.9205ZM12 3.7207C7.0293 3.7207 3 7.75 3 12.7207C3 17.6914 7.0293 21.7207 12 21.7207C16.9698 21.7207 21 17.6914 21 12.7207C21 7.75 16.9698 3.7207 12 3.7207Z" fill="#5367FF"/>
</svg>
