<svg width="30" height="31" viewBox="0 0 30 31" fill="none" xmlns="http://www.w3.org/2000/svg">
<path d="M12.1306 17.2707C12.0364 17.2707 10.0603 17.2713 9.14889 17.2704C8.67969 17.2701 8.51229 17.1015 8.51229 16.6293C8.51169 15.4164 8.51139 14.2035 8.51229 12.9906C8.51259 12.5244 8.68959 12.3465 9.15279 12.3462C10.0642 12.3456 12.0295 12.3459 12.1306 12.3459C12.1306 12.2628 12.1303 10.5117 12.1306 9.70529C12.1312 8.51309 12.3439 7.37189 12.9496 6.32699C13.5697 5.25749 14.4721 4.52489 15.6286 4.10129C16.3693 3.82979 17.1382 3.72149 17.9242 3.72089C18.9076 3.72029 19.891 3.72119 20.8747 3.72299C21.2974 3.72359 21.4849 3.91049 21.4858 4.33619C21.4876 5.47709 21.4876 6.61799 21.4858 7.75859C21.4852 8.18879 21.3055 8.36159 20.8732 8.36639C20.0671 8.37509 19.2604 8.36969 18.4552 8.40209C17.6419 8.40209 17.2141 8.79929 17.2141 9.64109C17.1946 10.5315 17.206 11.4228 17.206 12.3456C17.2822 12.3456 19.5967 12.3453 20.6785 12.3456C21.1699 12.3456 21.3379 12.5145 21.3379 13.0086C21.3379 14.2149 21.3376 15.4215 21.3367 16.6278C21.3364 17.1147 21.1786 17.2701 20.6842 17.2704C19.6024 17.271 17.2969 17.2707 17.1961 17.2707V27.0342C17.1961 27.5547 17.0323 27.7206 16.5187 27.7206C15.2665 27.7206 14.014 27.7209 12.7618 27.7206C12.3079 27.7206 12.1309 27.5442 12.1309 27.0903C12.1306 23.9106 12.1306 17.3823 12.1306 17.2707Z" fill="#3D6AD6"/>
</svg>
