<svg width="42" height="43" viewBox="0 0 42 43" fill="none" xmlns="http://www.w3.org/2000/svg">
<rect y="0.720703" width="42" height="42" rx="5" fill="#080808"/>
<path fill-rule="evenodd" clip-rule="evenodd" d="M26.7363 30.6707C26.5867 30.6707 26.4361 30.6357 26.2979 30.5637L21.4692 28.0409L16.6415 30.5637C16.3214 30.7294 15.9351 30.701 15.6453 30.4889C15.3536 30.2768 15.2087 29.9179 15.2703 29.5627L16.1898 24.2331L12.2882 20.4594C12.0288 20.2085 11.935 19.8316 12.0458 19.4869C12.1566 19.1441 12.453 18.8931 12.811 18.842L18.2088 18.0579L20.6217 13.2037C20.9417 12.5597 21.9976 12.5597 22.3177 13.2037L24.7306 18.0579L30.1284 18.842C30.4864 18.8931 30.7828 19.1441 30.8936 19.4869C31.0043 19.8316 30.9106 20.2085 30.6511 20.4594L26.7496 24.2331L27.6691 29.5627C27.7306 29.9179 27.5848 30.2768 27.2941 30.4889C27.1293 30.6101 26.9333 30.6707 26.7363 30.6707Z" fill="#5367FF"/>
</svg>
