<svg width="36" height="37" viewBox="0 0 36 37" fill="none" xmlns="http://www.w3.org/2000/svg">
<path d="M33.2156 15.7607H19.8211C19.2304 15.7607 18.7523 16.2389 18.7523 16.8295V21.1115C18.7523 21.7021 19.2304 22.1803 19.8211 22.1803H27.3656C26.5429 24.3248 24.9961 26.1178 23.0344 27.2568L26.2476 32.8256C31.4015 29.8443 34.4531 24.6061 34.4531 18.749C34.4531 17.9123 34.3898 17.3146 34.2703 16.6467C34.1718 16.1334 33.7289 15.7607 33.2156 15.7607Z" fill="#167EE6"/>
<path d="M18.0351 28.6066C14.3437 28.6066 11.1234 26.5887 9.3937 23.6074L3.82495 26.8137C6.65855 31.7285 11.9671 35.0332 18.0351 35.0332C21.0164 35.0332 23.8218 34.2316 26.2476 32.8324V32.8254L23.0343 27.2566C21.5578 28.1145 19.8562 28.6066 18.0351 28.6066Z" fill="#12B347"/>
<path d="M26.2406 32.8326V32.8256L23.0273 27.2568C21.5578 28.1076 19.8562 28.6068 18.0352 28.6068V35.0334C21.0164 35.0334 23.8219 34.2318 26.2406 32.8326Z" fill="#0F993E"/>
<path d="M8.04375 18.6154C8.04375 16.7943 8.54297 15.0928 9.39375 13.6232L3.825 10.417C2.41875 12.8287 1.61719 15.6271 1.61719 18.6154C1.61719 21.6037 2.41875 24.4021 3.825 26.8139L9.39375 23.6076C8.53594 22.1381 8.04375 20.4365 8.04375 18.6154Z" fill="#FFD500"/>
<path d="M18.0351 8.62383C20.4398 8.62383 22.6546 9.48164 24.3773 10.902C24.8062 11.2535 25.425 11.2254 25.8117 10.8387L28.8421 7.8082C29.2851 7.36523 29.25 6.64102 28.7789 6.2332C25.889 3.71602 22.1273 2.19727 18.0351 2.19727C11.9671 2.19727 6.65855 5.50195 3.82495 10.4168L9.3937 13.623C11.1234 10.6418 14.3437 8.62383 18.0351 8.62383Z" fill="#FF4B26"/>
<path d="M24.3773 10.902C24.8063 11.2535 25.425 11.2254 25.8117 10.8387L28.8422 7.8082C29.2852 7.36523 29.25 6.64102 28.7789 6.2332C25.8891 3.71602 22.1273 2.19727 18.0352 2.19727V8.62383C20.4398 8.62383 22.6547 9.47461 24.3773 10.902Z" fill="#D93F21"/>
</svg>
