<svg width="20" height="19" viewBox="0 0 20 19" fill="none" xmlns="http://www.w3.org/2000/svg">
<path fill-rule="evenodd" clip-rule="evenodd" d="M10 11.221C9.173 11.221 8.5 10.548 8.5 9.72096C8.5 9.70788 8.50301 9.69508 8.50602 9.68226L8.50603 9.68224C8.50877 9.67056 8.51152 9.65887 8.512 9.64696L10.074 11.209C10.0621 11.2094 10.0504 11.2122 10.0387 11.2149C10.0259 11.2179 10.0131 11.221 10 11.221ZM2.70725 1.01395C2.31625 0.622953 1.68425 0.622953 1.29325 1.01395C0.90225 1.40495 0.90225 2.03695 1.29325 2.42795L6.92325 8.05795C6.64725 8.56695 6.50025 9.13195 6.50025 9.72095C6.50025 11.651 8.07025 13.221 10.0002 13.221C10.5892 13.221 11.1543 13.074 11.6632 12.798L17.2932 18.428C17.4882 18.623 17.7442 18.721 18.0002 18.721C18.2563 18.721 18.5123 18.623 18.7073 18.428C19.0983 18.037 19.0983 17.405 18.7073 17.014L2.70725 1.01395ZM10.2198 14.7188C5.91475 14.8188 3.10475 11.1357 2.17275 9.71675C2.62975 9.00275 3.39575 7.95675 4.45575 7.00575L3.04475 5.59375C1.52275 6.98275 0.54675 8.50075 0.13275 9.22375C-0.04425 9.53175 -0.04425 9.91075 0.13275 10.2188C0.76175 11.3158 4.16175 16.7207 10.0247 16.7207C10.1067 16.7207 10.1888 16.7197 10.2708 16.7177C11.4548 16.6877 12.5268 16.4318 13.4978 16.0478L11.9178 14.4677C11.3828 14.6097 10.8198 14.7037 10.2198 14.7188ZM9.72995 2.72435C15.705 2.53735 19.23 8.11135 19.868 9.22335C20.044 9.53135 20.044 9.91035 19.868 10.2184C19.453 10.9414 18.477 12.4594 16.955 13.8484L15.544 12.4364C16.604 11.4854 17.371 10.4394 17.827 9.72535C16.895 8.30635 14.072 4.61535 9.78095 4.72335C9.18095 4.73835 8.61795 4.83235 8.08195 4.97435L6.50195 3.39435C7.47395 3.01035 8.54495 2.75435 9.72995 2.72435Z" fill="#9295A6"/>
</svg>
