<svg width="20" height="21" viewBox="0 0 20 21" fill="none" xmlns="http://www.w3.org/2000/svg">
<g id="Icon">
<path id="Mask" fill-rule="evenodd" clip-rule="evenodd" d="M17.4937 6.5232C17.4921 6.4632 17.4746 6.40654 17.4587 6.34904C17.4462 6.3007 17.4404 6.25154 17.4196 6.20737C17.4004 6.16404 17.3679 6.12904 17.3396 6.08904C17.3046 6.0382 17.2729 5.98737 17.2279 5.9457C17.2204 5.9382 17.2171 5.9282 17.2087 5.92154C17.1787 5.8957 17.1421 5.88654 17.1096 5.8657C17.0596 5.8332 17.0104 5.79987 16.9537 5.7782C16.8979 5.7582 16.8429 5.7532 16.7854 5.74487C16.7454 5.73904 16.7096 5.7207 16.6671 5.7207H12.5004C12.0396 5.7207 11.6671 6.09404 11.6671 6.55404C11.6671 7.01404 12.0396 7.38737 12.5004 7.38737H14.8554L11.4921 11.3107L7.92875 9.1732C7.57625 8.95987 7.12291 9.0382 6.85958 9.35404L2.69291 14.354C2.39875 14.7074 2.44625 15.2332 2.79958 15.5274C2.95625 15.6574 3.14458 15.7207 3.33291 15.7207C3.57208 15.7207 3.80875 15.619 3.97375 15.4207L7.68375 10.969L11.2379 13.1024C11.5871 13.3115 12.0354 13.2382 12.2996 12.9299L15.8337 8.80654V10.7207C15.8337 11.1807 16.2062 11.554 16.6671 11.554C17.1279 11.554 17.5004 11.1807 17.5004 10.7207V6.55404C17.5004 6.5432 17.4946 6.53404 17.4937 6.5232Z" fill="#03A66D"/>
</g>
</svg>
